<?xml version="1.0" encoding="utf-8"?>
<!-- Svg Vector Icons : http://www.onlinewebfonts.com/icon -->
<!DOCTYPE svg PUBLIC "-//W3C//DTD SVG 1.1//EN" "http://www.w3.org/Graphics/SVG/1.1/DTD/svg11.dtd">
<svg version="1.1" xmlns="http://www.w3.org/2000/svg" xmlns:xlink="http://www.w3.org/1999/xlink" x="0px" y="0px" viewBox="0 0 1000 1000" enable-background="new 0 0 1000 1000" xml:space="preserve">
<metadata> Svg Vector Icons : http://www.onlinewebfonts.com/icon </metadata>
<g><path fill="#FFFFFF" d="M298.9,212.4c-9.8,38.3-15.4,79.9-14.2,121.9l0,0c-18.4,2.7-34.4,18.2-30.1,69.5l0,0c4.9,53.2,24.6,57.8,44.9,68.8l0,0c16,88.2,38.8,135.6,48.6,149.9l0,0c11,16.2,20.9,30.3,22,49.9l0,0c-4.9,3.3-9.8,7.7-13.5,17.5l0,0c-10.4,25.3-22.1,39.7-51,46.8l0,0c-28.9,6.5-85.5,30.4-146.4,51.9l0,0c-60.9,20.7-147,49.4-147,81.1l0,0c0,18.9-1.2,56.5-2.4,86.3l0,0C19.4,990,71.3,990,71.3,990h857.5c32.6-1.3,53.3-9.4,61.3-34.1l0,0c-1.8-29.8-3-67.4-3-86.3l0,0c0-31.7-85.4-60.3-146.3-81.1l0,0c-60.8-21.4-118-45.4-147-51.9l0,0c-28.9-7.1-40.6-21.4-50.3-46.8l0,0c-4.4-9.7-9.9-15-14.8-18.2l0,0c1.9-18.9,11.1-33,22.2-49.2l0,0c9.8-14.3,31.9-61.7,48.5-149.3l0,0c20.9-11.7,41.2-15.6,45.6-69.5l0,0c4.3-51.8-12.3-66.7-30.7-69.5l0,0c3-140-51.7-272.4-182.7-282.2l0,0C451.8,43.4,413.9,10,413.9,10l0,0c-17.2,25.9-19.6,57.7-20.3,63 M393.6,73c-0.1,0.4-0.2,1-0.6,1.1c-0.4,0.2-0.7,0.2-1.8,0.1l0,0c-25.8-3.2-24.6-23.9-24.6-23.9l0,0c-16.6,16.2-51.5,80.1-67.6,162.1"/></g>
</svg>